<?xml version="1.0" encoding="iso-8859-1"?>
<!-- Generator: Adobe Illustrator 19.0.0, SVG Export Plug-In . SVG Version: 6.00 Build 0)  -->
<svg version="1.1" id="Capa_1" xmlns="http://www.w3.org/2000/svg" xmlns:xlink="http://www.w3.org/1999/xlink" x="0px" y="0px"
	 viewBox="0 0 354.4 354.4" style="enable-background:new 0 0 354.4 354.4;" xml:space="preserve">
<g>
	<g>
		<g>
			<path d="M176.8,282.4c19.6,0,37.6-8,50.4-20.8c12.8-12.8,20.8-30.8,20.8-50.4v-140c0-19.6-8-37.6-20.8-50.4S196.4,0,176.8,0
				c-19.6,0-37.6,8-50.4,20.8c-12.8,12.8-20.8,30.8-20.8,50.4v140c0,19.6,8,37.6,20.8,50.4C139.2,274.4,157.2,282.4,176.8,282.4z
				 M126.4,71.2L126.4,71.2c0-14,5.6-26.4,14.8-35.6c9.2-9.2,21.6-14.8,35.6-14.8s26.4,5.6,35.6,14.8c9.2,9.2,14.8,21.6,14.8,35.6
				v140c0,14-5.6,26.4-14.8,35.6c-9.2,9.2-21.6,14.8-35.6,14.8s-26.4-5.6-35.6-14.8s-14.8-21.6-14.8-35.6V71.2z"/>
			<path d="M271.2,166c-5.6,0-10.4,4.8-10.4,10.4v36c0,23.2-9.2,44-24.4,59.2c-15.2,15.2-36,24.4-59.2,24.4s-44-9.2-59.2-24.4
				c-15.2-15.2-24.4-36-24.4-59.2v-36c0-5.6-4.8-10.4-10.4-10.4c-5.6,0-10.4,4.8-10.4,10.4v36c0,28.8,11.6,55.2,30.8,74
				c16,16.8,38,27.6,62.8,30v17.2h-27.2c-5.6,0-10.4,4.8-10.4,10.4c0,5.6,4.8,10.4,10.4,10.4h37.6h37.6c5.6,0,10.4-4.8,10.4-10.4
				c0-5.6-4.8-10.4-10.4-10.4h-27.2v-17.2c24.8-2.4,46.8-13.6,63.6-30c18.8-18.8,30.8-45.2,30.8-74v-36
				C281.6,170.8,276.8,166,271.2,166z"/>
		</g>
	</g>
</g>
<g>
</g>
<g>
</g>
<g>
</g>
<g>
</g>
<g>
</g>
<g>
</g>
<g>
</g>
<g>
</g>
<g>
</g>
<g>
</g>
<g>
</g>
<g>
</g>
<g>
</g>
<g>
</g>
<g>
</g>
</svg>
